# xmcd
#
# Track frame offsets:
#	150
#	25894
#	48246
#	75247
#	94825
#	116785
#	131823
#	156431
#	188586
#	221935
#	242715
#	275562
#	300054
#
# Disc length: 4326 seconds
# Revision: 0
# Processed by: cddbd v1.5.2PL0 Copyright (c) Steve Scherf et al.
# Submitted via: dBpowerAMP V12.0
#
DISCID=ac10e40d
DTITLE=Various Artist - The Very Best Of Full Time Volume Due
DYEAR=1900
DGENRE=Dance Classics
TTITLE0=The Creatures - Inspiration
TTITLE1=Band Of Jocks - Let's All Dance
TTITLE2=Stephany - Shame
TTITLE3=Kano - I Need Love
TTITLE4=Selection - Ride The Beam
TTITLE5=Orlando Johnson and Trance - Turn The Music On
TTITLE6=Tom Hooker - Only One
TTITLE7=Kano - Can't Hold Back
TTITLE8=Charly - Space Woman
TTITLE9=Ago - Stop Your Life
TTITLE10=Game - Gotta Take Your Love
TTITLE11=Jimmy Ross - Fall Into A Trance
TTITLE12=DFX - Deep Love
EXTD=
EXTT0=
EXTT1=
EXTT2=
EXTT3=
EXTT4=
EXTT5=
EXTT6=
EXTT7=
EXTT8=
EXTT9=
EXTT10=
EXTT11=
EXTT12=
PLAYORDER=
